<mxfile host="app.diagrams.net" modified="2023-05-04T14:20:11.663Z" agent="Mozilla/5.0 (Windows NT 10.0; Win64; x64) AppleWebKit/537.36 (KHTML, like Gecko) Chrome/112.0.0.0 Safari/537.36 Edg/112.0.1722.68" version="21.2.8" etag="fnMD_Dm_MnAEDgIh8-GZ" type="github">
  <diagram name="Page-1" id="YqEnpz1hD13nq8yvlCcu">
    <mxGraphModel>
      <root>
        <mxCell id="0" />
        <mxCell id="1" parent="0" />
      </root>
    </mxGraphModel>
  </diagram>
</mxfile>
